<?xml version="1.0" standalone="no"?>
<!DOCTYPE svg PUBLIC "-//W3C//DTD SVG 20010904//EN"
 "http://www.w3.org/TR/2001/REC-SVG-20010904/DTD/svg10.dtd">
<svg version="1.0" xmlns="http://www.w3.org/2000/svg"
 width="932.000000pt" height="932.000000pt" viewBox="0 0 932.000000 932.000000"
 preserveAspectRatio="xMidYMid meet">
<metadata>
Created by potrace 1.14, written by Peter Selinger 2001-2017
</metadata>
<g transform="translate(0.000000,932.000000) scale(0.100000,-0.100000)"
fill="#000000" stroke="none">
<path d="M4238 8425 c-3 -3 -42 -8 -88 -11 -76 -6 -115 -10 -115 -14 0 -1 -22
-3 -50 -6 -64 -5 -83 -9 -91 -17 -4 -4 -14 -1 -22 6 -9 6 -13 7 -9 1 4 -7 -5
-11 -26 -12 -17 0 -33 -6 -35 -11 -2 -7 -10 -8 -22 -1 -11 6 -21 6 -24 1 -3
-5 -27 -12 -53 -16 -27 -5 -52 -10 -58 -11 -5 -2 -19 -5 -30 -8 -11 -2 -22 -5
-25 -6 -3 -1 -9 -2 -14 -1 -4 1 -14 -4 -22 -10 -8 -6 -14 -9 -14 -6 0 2 -37
-7 -82 -20 -46 -14 -91 -26 -100 -26 -10 -1 -18 -5 -18 -9 0 -4 -3 -7 -7 -6
-8 1 -18 -2 -97 -33 -27 -10 -57 -19 -67 -19 -11 0 -19 -4 -19 -10 0 -5 -8
-10 -18 -10 -10 0 -22 -3 -26 -7 -4 -5 -11 -8 -14 -9 -27 -3 -62 -18 -62 -26
0 -6 -6 -8 -14 -5 -8 3 -20 -1 -27 -9 -6 -8 -14 -12 -17 -9 -3 3 -14 -3 -25
-12 -10 -10 -21 -17 -23 -15 -3 2 -35 -12 -72 -30 -37 -18 -70 -31 -74 -30 -5
1 -8 -3 -8 -8 0 -6 -7 -10 -16 -10 -8 0 -12 -5 -8 -11 4 -8 0 -9 -15 -4 -12 4
-21 2 -21 -4 0 -6 -19 -20 -42 -32 -24 -12 -46 -27 -50 -33 -4 -6 -8 -7 -8 -2
0 5 -9 1 -20 -9 -11 -10 -20 -14 -20 -10 0 5 -6 1 -13 -10 -8 -10 -19 -15 -25
-11 -7 4 -12 1 -12 -9 0 -9 -4 -13 -10 -10 -5 3 -10 2 -10 -4 0 -5 -9 -13 -21
-16 -12 -4 -29 -14 -39 -23 -35 -32 -47 -40 -68 -46 -12 -4 -22 -11 -22 -16 0
-5 -17 -19 -37 -31 -21 -13 -49 -34 -63 -46 -14 -13 -28 -23 -32 -23 -3 0 -23
-16 -42 -35 -20 -19 -39 -35 -43 -35 -3 0 -18 -11 -32 -25 -59 -57 -115 -105
-122 -105 -4 0 -11 -9 -14 -20 -3 -11 -11 -20 -16 -20 -11 0 -89 -78 -184
-184 -33 -37 -74 -83 -92 -101 -17 -18 -29 -36 -25 -39 3 -3 -2 -6 -12 -6 -9
0 -14 -4 -11 -10 3 -5 1 -10 -6 -10 -7 0 -10 -3 -7 -6 6 -5 -14 -31 -69 -90
-12 -13 -19 -24 -16 -24 4 0 -4 -11 -17 -25 -13 -14 -20 -25 -15 -25 4 0 -3
-11 -17 -23 -14 -13 -29 -34 -33 -46 -3 -12 -11 -18 -17 -15 -6 4 -8 2 -4 -4
3 -6 -1 -17 -9 -25 -8 -9 -15 -20 -15 -25 0 -6 -7 -12 -15 -16 -8 -3 -15 -13
-15 -23 -1 -23 -25 -55 -34 -45 -4 4 -6 3 -5 -3 2 -5 -2 -20 -9 -32 -7 -13 -9
-23 -5 -23 4 0 0 -5 -9 -11 -10 -5 -18 -17 -18 -24 0 -8 -5 -15 -11 -15 -5 0
-7 -4 -4 -10 3 -5 1 -10 -6 -10 -7 0 -9 -3 -6 -6 4 -4 -2 -19 -11 -33 -23 -33
-94 -178 -92 -187 1 -4 -3 -10 -10 -14 -6 -4 -12 -13 -14 -21 -1 -8 -7 -24
-14 -35 -6 -12 -8 -24 -5 -28 3 -3 1 -6 -6 -6 -7 0 -10 -4 -6 -9 3 -6 -3 -14
-12 -20 -13 -7 -14 -10 -4 -11 11 0 11 -4 -2 -18 -10 -10 -17 -25 -17 -34 0
-8 -3 -18 -8 -22 -4 -4 -7 -11 -8 -14 -1 -7 -3 -13 -27 -77 -7 -16 -11 -33 -9
-37 1 -5 -2 -8 -6 -8 -5 0 -9 -6 -10 -12 -1 -21 -9 -51 -27 -98 -9 -25 -17
-53 -16 -62 0 -10 -4 -18 -8 -18 -4 0 -8 -10 -8 -22 -3 -38 -8 -63 -14 -68 -4
-3 -10 -23 -14 -45 -4 -22 -8 -44 -9 -50 -2 -5 -6 -28 -11 -50 -4 -22 -10 -44
-13 -49 -3 -6 -7 -24 -8 -40 -3 -44 -8 -60 -19 -68 -6 -5 -5 -8 3 -8 7 0 10
-5 7 -10 -7 -12 -12 -37 -20 -100 -13 -103 -16 -136 -16 -158 1 -13 -4 -33
-10 -44 -8 -15 -8 -19 0 -14 12 8 15 -7 4 -18 -13 -12 -12 -490 0 -498 7 -4 7
-11 -1 -21 -7 -7 -9 -17 -6 -20 4 -3 8 -39 11 -79 2 -40 10 -76 16 -80 9 -6 8
-8 -1 -8 -7 0 -10 -5 -6 -11 6 -11 16 -77 18 -131 0 -16 5 -28 10 -28 4 0 6
-9 3 -20 -3 -11 -2 -22 2 -25 4 -2 7 -14 6 -27 -1 -13 1 -30 6 -39 4 -9 9 -33
11 -53 1 -20 5 -36 8 -36 5 0 11 -30 13 -72 1 -10 5 -18 10 -18 4 0 6 -4 2 -9
-3 -5 -1 -12 4 -15 5 -4 8 -14 6 -24 -1 -9 2 -22 7 -29 5 -7 7 -17 3 -23 -3
-5 -1 -10 6 -10 7 0 9 -3 6 -7 -4 -3 -1 -13 6 -21 10 -13 9 -14 -3 -7 -12 7
-13 6 -4 -6 12 -15 57 -146 57 -166 0 -7 3 -13 7 -13 3 0 13 -23 20 -50 7 -28
18 -50 23 -50 6 0 8 -3 4 -6 -3 -4 0 -19 8 -34 8 -15 11 -30 8 -34 -4 -3 -1
-6 6 -6 7 0 9 -4 6 -10 -3 -6 -1 -10 4 -10 6 0 11 -7 11 -15 0 -8 4 -23 9 -33
5 -9 16 -32 23 -50 7 -17 16 -32 20 -32 5 0 8 -9 8 -19 0 -11 5 -23 10 -26 6
-4 8 -10 5 -15 -3 -5 1 -14 8 -22 7 -7 30 -47 51 -88 21 -41 42 -77 46 -80 5
-3 11 -17 15 -32 4 -15 13 -29 22 -32 8 -3 11 -10 8 -16 -3 -5 -1 -10 4 -10 6
0 11 -6 11 -13 0 -8 9 -22 20 -32 11 -10 20 -26 20 -35 0 -10 7 -21 16 -24 8
-3 12 -10 9 -16 -3 -5 -1 -10 6 -10 7 0 10 -3 6 -6 -3 -3 4 -16 16 -28 12 -11
29 -33 36 -48 8 -16 18 -28 23 -28 4 0 8 -6 8 -14 0 -8 7 -16 15 -20 8 -3 15
-12 15 -20 0 -7 7 -16 15 -20 8 -3 15 -12 15 -20 0 -8 3 -16 8 -18 6 -3 60
-66 112 -132 8 -10 30 -35 47 -55 18 -20 33 -40 33 -44 0 -5 5 -5 10 -2 6 3
10 -1 10 -9 0 -9 7 -16 16 -16 8 0 13 -3 11 -7 -5 -10 140 -153 147 -145 3 3
6 -2 6 -11 0 -9 7 -17 16 -17 8 0 12 -4 9 -10 -3 -5 -2 -10 3 -10 17 0 82 -66
75 -75 -5 -4 -3 -5 4 -2 6 4 18 0 26 -8 9 -8 21 -15 28 -15 7 0 10 -3 6 -6 -7
-7 17 -34 30 -34 4 0 23 -14 41 -31 17 -16 32 -28 32 -25 0 3 11 -5 24 -17 39
-36 56 -48 56 -41 0 4 11 -5 25 -20 14 -15 25 -24 25 -21 0 3 15 -5 33 -19 19
-15 39 -26 46 -26 7 0 10 -4 7 -8 -3 -5 14 -18 37 -30 47 -25 80 -44 87 -53 3
-3 20 -12 38 -20 17 -8 32 -17 32 -21 0 -5 7 -8 15 -8 8 0 15 -5 15 -12 0 -6
3 -9 6 -5 3 3 24 -5 45 -19 21 -13 43 -24 49 -24 5 0 10 -5 10 -12 0 -6 3 -8
6 -5 7 7 64 -21 75 -36 3 -5 10 -9 15 -9 19 -1 64 -20 64 -27 0 -4 6 -8 13 -8
6 0 32 -9 57 -20 76 -34 184 -76 198 -76 6 0 12 -4 12 -9 0 -4 3 -7 8 -7 4 1
9 1 12 -1 3 -1 16 -4 30 -6 13 -2 27 -9 31 -16 4 -6 11 -8 17 -4 6 3 14 1 17
-5 4 -5 13 -8 21 -5 7 3 16 1 19 -4 4 -6 15 -10 26 -10 10 0 19 -4 19 -9 0 -6
9 -8 20 -6 11 2 20 0 20 -5 0 -4 9 -6 20 -3 11 3 20 1 20 -4 0 -5 8 -10 18
-11 21 -2 57 -10 57 -12 0 -3 41 -11 63 -12 12 0 22 -5 22 -10 0 -6 11 -8 25
-6 14 3 28 1 31 -4 3 -4 10 -6 15 -3 5 4 15 3 22 -2 6 -4 19 -8 27 -10 35 -5
106 -15 123 -16 9 -1 17 -5 17 -10 0 -5 6 -4 13 2 8 6 17 8 20 5 8 -8 51 -16
89 -16 15 0 26 -3 24 -7 -2 -3 27 -6 66 -6 38 0 72 -3 75 -8 2 -4 11 -3 19 4
8 6 14 7 14 2 0 -11 429 -11 448 0 7 5 12 3 12 -5 0 -9 3 -9 10 2 5 8 10 10
10 4 0 -6 7 -11 15 -11 8 0 12 3 10 6 -2 4 20 7 48 8 29 1 72 4 97 8 92 12
106 14 140 19 19 3 50 8 68 11 41 6 70 12 102 19 24 6 52 11 115 23 17 3 38 9
48 14 9 5 17 7 17 5 0 -3 12 -1 28 5 15 6 38 13 52 15 24 5 77 20 110 32 8 3
20 7 25 7 6 1 24 8 40 14 17 7 37 14 45 16 8 2 16 4 18 5 1 2 5 3 10 5 7 2 52
19 82 32 8 3 19 5 23 4 4 -1 18 5 30 14 12 8 29 15 39 15 10 0 18 5 18 11 0 6
9 9 20 6 11 -3 18 -1 14 4 -3 5 -1 9 5 9 18 0 185 81 193 94 4 6 8 7 8 2 0 -5
7 -3 15 4 8 7 15 9 15 6 0 -4 7 0 16 8 8 9 22 16 30 16 8 0 14 5 14 12 0 6 3
8 7 5 3 -4 12 -2 20 4 19 16 75 48 96 55 9 4 17 10 17 15 0 5 7 9 15 9 8 0 15
5 15 10 0 6 8 10 18 10 10 0 25 9 35 20 10 12 21 18 26 15 5 -2 11 1 14 9 3 7
27 26 54 41 26 16 53 36 60 44 7 9 13 12 13 7 0 -6 7 -1 15 10 8 10 15 16 15
12 0 -4 10 3 23 15 33 31 67 58 67 52 0 -2 11 6 24 18 45 42 78 67 87 67 6 0
7 5 4 10 -3 6 -2 10 3 10 9 0 85 65 151 130 14 13 29 24 33 22 5 -1 7 2 5 6
-1 5 21 31 48 58 63 63 165 174 165 181 0 5 37 48 83 94 15 16 24 29 20 29 -4
0 0 7 10 14 10 8 17 16 15 18 -2 2 3 10 10 18 7 8 28 36 46 62 18 26 37 44 41
40 5 -4 5 -2 2 5 -4 6 0 18 8 26 8 9 15 20 15 25 0 6 3 12 8 14 9 4 76 107 85
131 3 9 11 17 17 17 6 0 9 4 6 9 -3 4 3 19 14 31 11 13 20 29 20 35 0 7 7 18
15 25 8 7 12 16 10 21 -3 4 1 11 9 16 8 4 14 10 14 13 -2 13 14 50 23 50 5 0
9 5 9 12 0 12 70 159 80 168 3 3 7 14 8 25 2 11 12 36 22 55 10 19 20 44 22
55 1 11 6 22 10 25 7 6 50 120 51 138 0 6 3 12 7 12 4 0 7 6 8 13 1 20 9 50
27 97 9 25 17 53 16 63 0 9 4 17 9 17 4 0 7 8 6 17 -2 10 3 33 11 52 8 18 12
40 9 47 -3 8 -2 14 3 14 4 0 8 6 9 13 0 6 3 23 7 37 3 14 8 36 11 50 15 83 27
137 31 150 3 8 7 33 9 55 2 22 6 54 8 70 9 64 16 132 20 176 2 26 7 52 10 58
4 6 2 11 -4 11 -7 0 -8 5 -3 13 9 13 12 507 3 507 -3 0 -5 24 -5 53 0 28 -2
56 -4 62 -3 5 -6 28 -7 50 -4 66 -16 139 -25 150 -4 6 -4 17 1 25 5 8 5 19 1
25 -5 5 -11 26 -14 45 -3 19 -9 46 -11 60 -3 14 -7 37 -8 53 -1 15 -6 27 -11
27 -5 0 -7 14 -5 30 3 17 0 30 -5 30 -5 0 -7 7 -3 15 3 8 2 15 -3 15 -5 0 -11
18 -15 41 -4 23 -15 65 -26 95 -10 30 -16 54 -13 54 3 0 0 7 -7 15 -7 8 -10
22 -6 30 3 8 1 15 -5 15 -6 0 -8 4 -5 9 4 5 2 11 -4 13 -5 1 -11 15 -12 31 -1
15 -6 27 -10 27 -4 0 -8 7 -8 15 0 9 -8 28 -17 42 -10 15 -12 24 -6 20 9 -6
11 -3 7 7 -3 9 -11 16 -17 16 -6 0 -8 3 -4 6 3 4 0 19 -8 34 -8 15 -11 30 -8
34 4 3 1 6 -6 6 -7 0 -9 5 -6 10 3 6 1 10 -4 10 -6 0 -11 7 -11 15 0 8 -4 23
-9 33 -5 9 -18 35 -30 58 -11 23 -18 44 -14 48 3 3 1 6 -6 6 -8 0 -11 7 -7 15
3 9 -1 18 -8 21 -13 5 -32 44 -34 68 0 5 -4 12 -9 15 -5 3 -20 27 -33 54 -13
26 -27 47 -32 47 -4 0 -8 9 -8 20 0 11 -5 20 -11 20 -5 0 -7 5 -4 10 3 6 2 10
-3 10 -4 0 -16 16 -25 35 -9 19 -21 35 -27 35 -5 0 -6 7 -3 17 4 11 3 14 -5 9
-7 -4 -12 -1 -12 8 0 8 -6 21 -13 28 -7 7 -22 29 -33 48 -10 19 -26 42 -34 50
-24 24 -80 107 -80 119 0 6 -8 11 -17 11 -9 0 -14 3 -10 6 3 3 -7 20 -23 38
-17 17 -30 35 -30 39 0 4 -13 21 -29 36 -16 16 -27 32 -24 35 4 3 -1 6 -10 6
-9 0 -17 6 -17 13 0 7 -13 24 -30 37 -16 14 -29 31 -30 38 0 6 -7 12 -17 12
-9 0 -13 3 -10 7 4 3 -2 13 -13 20 -11 8 -18 19 -15 24 4 5 1 9 -5 9 -6 0 -38
27 -70 59 -32 33 -61 57 -64 53 -3 -3 -6 2 -6 11 0 9 -7 17 -16 17 -8 0 -13 4
-10 9 4 5 -7 15 -23 22 -16 7 -27 17 -25 21 3 4 0 8 -6 8 -6 0 -8 5 -5 10 3 6
0 10 -8 10 -8 0 -27 12 -44 28 -16 15 -49 43 -74 62 -24 19 -51 40 -59 47 -59
47 -140 103 -149 103 -7 0 -9 5 -6 10 3 6 0 10 -8 10 -7 0 -23 9 -35 20 -12
12 -22 18 -22 15 0 -4 -7 1 -16 9 -8 9 -22 16 -30 16 -8 0 -12 5 -9 10 3 6 -1
10 -10 10 -9 0 -25 9 -37 20 -12 11 -28 20 -35 20 -7 0 -13 4 -13 9 0 5 -13
12 -30 16 -16 4 -30 10 -30 13 0 4 -26 20 -58 37 -31 16 -60 33 -63 38 -3 5
-10 8 -15 8 -5 0 -51 20 -102 45 -87 42 -137 65 -154 69 -5 2 -11 4 -15 5 -5
1 -11 2 -15 1 -5 0 -8 3 -8 9 0 5 -9 10 -20 10 -11 0 -20 4 -20 10 0 5 -7 7
-15 4 -8 -4 -15 -1 -15 6 0 6 -4 9 -8 6 -5 -3 -21 1 -35 9 -15 8 -30 14 -32
14 -22 2 -55 15 -55 23 0 5 -4 7 -9 3 -8 -4 -71 12 -121 32 -20 8 -16 7 -85
23 -33 7 -64 17 -70 22 -5 4 -24 8 -42 8 -18 0 -33 3 -33 8 0 4 -15 8 -32 9
-30 2 -73 9 -73 13 0 4 -43 10 -82 13 -24 1 -43 4 -43 8 0 3 -11 6 -25 7 -14
1 -36 2 -50 3 -14 1 -25 5 -25 9 0 9 -20 8 -36 -3 -6 -3 -14 -3 -18 0 -8 9
-26 11 -102 16 -34 2 -66 7 -73 11 -6 4 -11 2 -11 -4 0 -7 -5 -8 -12 -3 -20
12 -458 11 -458 -2 0 -5 -4 -4 -8 3 -5 7 -11 10 -14 7z m36 -247 c-5 -8 -2 -9
12 -4 26 11 124 13 130 4 3 -5 11 -5 17 -1 16 10 117 10 117 0 0 -5 5 -5 12
-1 17 11 78 12 78 1 0 -4 8 -3 19 2 10 6 21 7 25 4 3 -4 33 -7 65 -8 33 -1 66
-7 74 -14 9 -7 18 -8 21 -3 4 6 21 7 43 2 20 -5 39 -8 42 -8 28 3 61 -4 61
-12 0 -5 -7 -10 -15 -10 -7 0 -18 -7 -23 -16 -5 -9 -12 -15 -16 -14 -13 2
-116 -67 -109 -74 4 -4 0 -4 -10 0 -9 3 -17 2 -17 -2 0 -5 -20 -22 -45 -37
-25 -16 -45 -34 -45 -40 0 -5 -3 -7 -6 -4 -4 4 -19 -4 -34 -16 -15 -12 -40
-31 -56 -42 -15 -11 -38 -30 -51 -43 -13 -13 -23 -19 -23 -15 0 4 -7 -3 -16
-15 -8 -12 -19 -22 -24 -22 -5 0 -26 -17 -47 -38 -21 -20 -53 -50 -71 -65 -19
-15 -32 -27 -30 -27 2 0 -29 -35 -68 -77 -40 -42 -71 -80 -68 -84 2 -4 -5 -10
-16 -14 -11 -3 -19 -9 -17 -13 2 -6 -59 -100 -72 -112 -3 -3 -7 -12 -9 -20 -2
-8 -10 -22 -19 -32 -8 -9 -16 -22 -17 -30 -2 -7 -11 -30 -20 -50 -9 -21 -17
-41 -17 -45 -1 -5 -6 -19 -11 -33 -10 -27 -20 -67 -21 -87 0 -7 -3 -13 -7 -13
-3 0 -5 -16 -5 -35 1 -19 -3 -35 -9 -35 -6 0 -5 -4 3 -9 10 -6 10 -13 2 -28
-5 -11 -8 -23 -5 -25 3 -3 7 -30 9 -61 4 -59 18 -121 40 -178 8 -20 11 -39 8
-43 -4 -3 -1 -6 5 -6 7 0 12 -9 12 -20 0 -11 5 -20 10 -20 6 0 10 -5 10 -10 0
-6 11 -28 25 -50 14 -22 23 -40 21 -40 -2 0 14 -19 35 -42 21 -23 36 -46 33
-50 -3 -5 -2 -7 3 -6 5 2 19 -7 33 -19 13 -13 28 -23 32 -23 5 0 6 -4 3 -10
-3 -5 0 -10 8 -10 7 0 22 -8 33 -18 10 -10 47 -32 81 -49 34 -17 59 -33 56
-37 -3 -3 4 -4 16 -1 11 2 21 0 21 -6 0 -5 8 -9 18 -9 10 0 22 -3 26 -7 8 -8
34 -14 59 -14 9 0 17 -4 17 -8 0 -4 6 -8 13 -8 6 0 48 -8 92 -18 44 -9 91 -19
105 -21 14 -2 41 -7 60 -11 19 -3 38 -6 43 -5 4 1 7 -2 7 -8 0 -5 7 -7 15 -4
8 4 15 1 15 -5 0 -6 7 -8 15 -5 8 4 15 1 15 -6 0 -6 5 -8 10 -5 6 3 10 1 10
-4 0 -6 5 -11 10 -11 15 0 70 -51 70 -66 0 -6 7 -14 15 -18 8 -3 12 -12 9 -21
-3 -8 -2 -15 3 -15 5 0 8 -35 6 -77 -3 -96 -4 -103 -15 -103 -4 0 -7 -3 -7 -7
1 -5 0 -11 -1 -15 -1 -5 -3 -11 -4 -15 -4 -22 -49 -103 -57 -103 -5 0 -9 -5
-9 -12 0 -6 -10 -23 -22 -36 -13 -14 -16 -22 -8 -18 13 7 13 6 0 -6 -8 -7 -16
-20 -18 -28 -2 -8 -7 -17 -12 -20 -8 -5 -63 -120 -62 -130 0 -3 -4 -11 -10
-17 -6 -7 -7 -13 -2 -13 5 0 3 -4 -4 -9 -7 -4 -15 -14 -17 -22 -8 -36 -18 -59
-25 -59 -5 0 -7 -8 -6 -17 2 -10 0 -20 -5 -23 -4 -3 -10 -18 -13 -34 -3 -15
-10 -34 -17 -42 -6 -8 -8 -14 -4 -14 4 0 2 -7 -5 -15 -6 -8 -9 -19 -5 -25 3
-5 2 -10 -2 -10 -8 0 -33 -73 -39 -110 -1 -8 -6 -27 -12 -41 -6 -15 -8 -30 -5
-33 4 -3 1 -6 -5 -6 -6 0 -9 -9 -7 -20 2 -11 0 -22 -5 -25 -5 -3 -7 -12 -3
-20 3 -8 1 -15 -5 -15 -5 0 -8 -11 -7 -25 2 -14 -1 -25 -6 -25 -6 0 -6 -8 1
-19 6 -13 7 -20 0 -23 -6 -2 -13 -26 -16 -53 -8 -77 -11 -275 -5 -271 3 2 6
-18 6 -44 0 -28 4 -46 9 -43 5 4 7 -3 4 -15 -4 -12 -2 -22 3 -22 5 0 9 -8 9
-18 0 -10 3 -22 7 -26 4 -3 8 -14 9 -23 6 -42 112 -221 136 -231 5 -2 6 -8 2
-13 -3 -5 -1 -9 4 -9 4 0 33 -24 63 -52 69 -66 96 -88 109 -88 6 0 10 -4 10
-9 0 -4 29 -23 65 -41 36 -18 65 -38 65 -43 0 -6 3 -8 6 -4 3 3 40 -10 81 -29
41 -18 79 -32 83 -29 4 3 13 -2 20 -10 6 -7 18 -11 26 -8 8 3 14 1 14 -5 0 -6
9 -8 20 -5 11 3 20 1 20 -4 0 -5 14 -10 32 -11 18 -2 35 -6 38 -10 3 -4 14 -7
25 -7 11 0 31 -3 45 -8 23 -8 60 -14 130 -22 14 -2 25 -4 25 -5 0 -2 14 -4 30
-5 17 -2 30 -4 30 -5 0 -1 25 -3 55 -5 30 -2 55 -4 55 -5 0 -1 12 -3 28 -5 18
-2 25 0 21 7 -5 7 -2 8 7 2 8 -4 37 -9 65 -10 29 -1 57 -4 63 -8 6 -4 11 -3
11 1 0 5 27 6 60 3 33 -3 60 -3 60 0 0 3 48 5 108 4 59 0 117 3 130 7 14 5 22
5 22 -2 0 -6 5 -7 11 -3 6 4 39 8 73 10 33 2 79 6 101 9 22 3 54 7 70 9 94 9
183 21 188 26 3 2 42 8 89 12 21 2 38 6 38 10 0 4 7 5 15 2 8 -4 21 -2 28 3 6
5 27 9 45 9 17 -1 32 3 32 8 0 5 3 7 6 4 3 -4 20 -2 37 4 18 5 43 11 57 13 14
1 36 6 50 9 14 3 40 9 58 12 18 3 34 10 37 14 3 5 15 6 27 2 16 -4 19 -2 13 8
-5 8 -4 11 3 6 6 -4 51 5 99 19 48 14 98 28 110 30 12 3 35 11 50 17 39 16 46
16 49 -4 1 -10 -1 -18 -6 -18 -4 0 -6 -9 -3 -20 3 -11 1 -20 -4 -20 -5 0 -10
-6 -10 -14 0 -20 -75 -220 -86 -227 -5 -3 -8 -10 -8 -15 1 -5 -4 -22 -10 -39
-7 -16 -11 -33 -10 -37 0 -5 -4 -8 -9 -8 -6 0 -10 -6 -10 -13 0 -7 -13 -38
-30 -70 -16 -31 -26 -57 -23 -57 4 0 -3 -10 -15 -22 -11 -13 -20 -26 -19 -29
3 -8 -36 -83 -45 -87 -5 -2 -8 -8 -8 -13 0 -6 -16 -34 -35 -64 -19 -30 -32
-55 -29 -55 2 0 -4 -10 -16 -22 -11 -12 -20 -27 -20 -34 0 -6 -7 -14 -15 -18
-8 -3 -15 -12 -15 -19 0 -8 -8 -23 -17 -35 -47 -54 -52 -62 -45 -62 4 0 0 -6
-8 -13 -8 -7 -26 -29 -40 -49 -14 -21 -28 -38 -32 -38 -5 0 -8 -5 -8 -11 0 -7
-10 -20 -22 -30 -11 -11 -17 -19 -13 -19 4 0 -2 -8 -13 -19 -12 -10 -19 -21
-15 -25 3 -3 -2 -6 -12 -6 -10 0 -16 -2 -13 -5 7 -7 -60 -81 -199 -219 -143
-143 -201 -195 -208 -188 -3 3 -5 -3 -5 -13 0 -10 -3 -16 -6 -12 -6 6 -32 -13
-65 -47 -11 -11 -19 -16 -19 -12 0 4 -11 -5 -25 -20 -14 -15 -25 -24 -25 -20
0 4 -10 -3 -22 -14 -13 -12 -35 -29 -50 -38 -16 -9 -28 -20 -28 -24 0 -4 -7
-8 -15 -8 -9 0 -18 -7 -21 -15 -4 -8 -10 -13 -14 -10 -4 3 -13 -2 -20 -10 -7
-8 -16 -12 -21 -9 -5 3 -9 1 -9 -5 0 -6 -18 -20 -40 -31 -22 -11 -40 -25 -40
-30 0 -6 -3 -9 -7 -8 -13 3 -63 -24 -63 -34 0 -4 -3 -7 -7 -6 -13 3 -63 -25
-63 -34 0 -5 -4 -7 -9 -3 -5 3 -17 -2 -25 -11 -9 -8 -16 -13 -16 -10 0 2 -38
-15 -85 -39 -47 -24 -85 -41 -85 -38 0 3 -8 -1 -17 -10 -10 -8 -22 -17 -28
-18 -5 -1 -23 -6 -40 -12 -16 -6 -32 -11 -35 -10 -3 0 -10 -7 -17 -16 -11 -14
-12 -14 -13 -1 -1 13 -2 13 -13 0 -7 -8 -17 -16 -22 -17 -6 -1 -47 -15 -92
-32 -46 -17 -83 -28 -83 -25 0 4 -6 2 -12 -3 -7 -6 -38 -16 -68 -24 -30 -7
-58 -17 -61 -21 -3 -5 -11 3 -19 17 -7 14 -17 25 -22 25 -4 0 -8 5 -8 11 0 6
-6 16 -12 23 -7 7 -29 32 -48 56 -19 23 -50 58 -67 77 -18 19 -33 40 -33 46 0
5 -3 8 -6 5 -5 -6 -54 38 -54 47 0 7 -39 45 -45 45 -3 0 -20 15 -38 33 -19 18
-55 50 -83 72 -27 22 -52 45 -56 50 -4 6 -8 6 -8 2 0 -5 -7 -1 -16 7 -24 25
-101 76 -114 76 -6 0 -13 7 -16 15 -4 8 -10 13 -14 10 -4 -3 -11 2 -14 11 -3
8 -10 12 -16 9 -5 -3 -10 -1 -10 4 0 6 -5 11 -10 11 -6 0 -22 8 -37 17 -14 10
-33 18 -41 19 -8 2 -18 7 -21 12 -3 5 -30 20 -58 33 -29 13 -53 27 -53 31 0 4
-7 5 -15 2 -8 -4 -15 -2 -15 4 0 5 -10 12 -23 16 -13 3 -41 13 -63 23 -21 9
-42 16 -46 15 -5 -1 -8 2 -8 8 0 5 -7 6 -17 3 -10 -4 -14 -2 -9 5 4 6 -1 11
-11 11 -32 -1 -57 7 -61 19 -2 6 -10 8 -18 5 -8 -3 -21 0 -29 7 -8 7 -15 10
-15 7 0 -3 -24 3 -52 13 -29 10 -56 16 -60 14 -5 -3 -8 0 -8 6 0 7 -6 10 -12
7 -7 -2 -28 2 -47 9 -19 8 -36 12 -38 10 -3 -3 -23 2 -45 10 -22 7 -44 12 -48
9 -5 -3 -11 -1 -15 4 -3 6 -12 8 -20 4 -8 -3 -15 -1 -15 3 0 8 -34 14 -92 17
-10 1 -18 5 -18 10 0 4 -3 6 -8 3 -7 -4 -116 14 -142 24 -3 1 -9 2 -14 1 -4
-1 -15 4 -24 11 -12 10 -14 10 -8 1 4 -7 2 -13 -3 -13 -6 0 -11 4 -11 8 0 4
-16 9 -36 10 -20 2 -45 7 -55 12 -10 6 -29 10 -43 10 -14 0 -28 5 -31 10 -3 6
-14 10 -24 10 -24 0 -103 79 -97 97 3 7 1 13 -5 13 -6 0 -9 7 -6 15 4 8 3 16
-1 19 -9 5 -7 60 4 125 7 45 9 53 14 69 1 4 3 12 4 17 10 54 20 92 26 100 4 6
7 22 6 37 -1 14 2 24 6 22 4 -3 8 3 9 13 0 10 2 27 4 38 18 91 23 121 19 127
-3 5 -2 8 3 8 4 0 7 33 5 73 -4 102 -6 121 -14 127 -3 3 -8 20 -11 39 -3 19
-11 37 -17 41 -7 4 -10 9 -9 11 5 6 -35 69 -43 69 -4 0 -8 6 -8 14 0 8 -9 18
-20 21 -11 4 -18 10 -15 14 2 4 -7 14 -20 21 -14 7 -25 17 -25 22 0 4 -7 8
-15 8 -8 0 -15 5 -15 10 0 6 -9 10 -21 10 -11 0 -17 5 -14 10 3 6 -1 10 -10
10 -17 0 -56 20 -66 33 -3 5 -10 8 -15 7 -5 0 -18 2 -29 6 -43 14 -51 16 -70
17 -11 1 -22 5 -25 9 -5 6 -47 15 -110 23 -50 7 -300 7 -330 0 -14 -3 -52 -8
-85 -11 -33 -3 -65 -10 -71 -15 -6 -5 -20 -7 -31 -4 -13 2 -24 -3 -28 -12 -4
-12 -9 -13 -17 -5 -8 8 -17 8 -30 1 -10 -5 -18 -7 -18 -4 0 3 -15 -1 -33 -8
-17 -8 -40 -13 -50 -11 -9 1 -17 -1 -17 -6 0 -5 -19 -11 -42 -15 -24 -4 -49
-12 -55 -17 -7 -6 -13 -7 -13 -4 0 4 -6 4 -12 -1 -13 -8 -33 -13 -55 -15 -7
-1 -13 -5 -13 -9 0 -4 -15 -10 -32 -13 -18 -3 -46 -13 -62 -21 -15 -8 -32 -12
-37 -9 -5 3 -9 1 -9 -3 0 -9 -99 -48 -112 -45 -5 1 -8 -3 -8 -9 0 -5 -5 -7
-10 -4 -6 3 -10 1 -10 -4 0 -6 -6 -11 -14 -11 -8 0 -41 -13 -72 -30 -31 -16
-61 -27 -66 -24 -4 3 -8 1 -8 -4 0 -11 -60 -35 -68 -28 -2 3 -5 16 -6 29 0 14
-4 23 -8 20 -5 -2 -8 3 -8 11 0 9 -4 16 -9 16 -4 0 -7 11 -6 25 2 14 0 25 -4
25 -6 0 -54 147 -56 170 0 3 -5 12 -10 20 -5 8 -10 24 -11 35 -1 19 -20 101
-32 135 -2 8 -6 28 -8 43 -2 16 -9 37 -14 48 -8 13 -7 19 0 19 7 0 8 6 1 18
-5 10 -11 30 -13 45 -2 14 -7 29 -11 33 -4 4 -2 13 4 21 8 9 8 13 1 13 -6 0
-10 8 -10 18 0 9 -3 40 -7 67 -4 28 -9 70 -10 95 -2 25 -4 45 -5 45 -1 0 -3
26 -4 57 -1 32 -5 61 -9 64 -4 4 -2 13 4 21 6 7 7 13 2 13 -5 0 -9 9 -10 20
-2 27 23 34 170 43 15 1 27 4 27 7 0 3 15 5 33 5 17 -1 36 1 41 3 5 3 28 6 50
8 23 1 41 3 41 4 0 1 14 3 30 5 17 1 32 4 35 5 3 1 9 2 13 1 4 -1 16 3 25 8
10 5 24 6 31 1 8 -4 24 -2 39 6 14 7 29 11 34 8 4 -3 14 -2 21 3 6 4 26 8 42
9 17 1 30 3 30 4 0 1 9 3 19 5 11 2 31 7 45 11 14 4 35 8 46 9 22 3 35 6 120
29 33 9 69 19 79 21 11 3 42 12 70 22 28 9 54 18 59 19 4 1 9 3 12 4 8 4 17 7
53 15 17 4 32 11 32 15 0 7 49 21 66 19 4 0 10 3 13 8 3 5 42 27 86 48 44 22
82 43 83 47 2 5 10 8 18 8 8 0 14 5 14 10 0 6 5 10 11 10 10 0 69 41 97 68 7
6 18 12 23 12 6 0 7 5 4 10 -3 6 -1 10 5 10 25 0 161 162 166 199 2 8 7 17 12
20 9 5 40 71 46 96 2 6 8 30 15 55 17 58 23 88 25 127 1 18 5 35 8 39 4 3 2
18 -3 32 -7 18 -7 28 0 30 6 2 8 9 4 15 -4 7 -8 21 -9 32 -4 47 -17 101 -26
112 -5 7 -7 17 -3 23 3 5 1 10 -4 10 -6 0 -11 6 -11 14 0 8 -6 21 -13 28 -7 7
-14 16 -15 20 -8 28 -18 45 -34 59 -10 9 -18 20 -18 23 0 4 -6 13 -12 20 -7 7
-24 27 -37 44 -13 17 -28 29 -32 26 -5 -3 -9 -1 -9 5 0 12 -33 44 -81 81 -18
14 -38 30 -44 35 -6 6 -18 15 -27 20 -9 6 -40 26 -70 46 -29 20 -78 49 -108
65 -30 16 -56 32 -58 37 -2 4 -10 7 -18 7 -14 0 -54 19 -64 31 -3 3 -17 9 -32
12 -15 4 -34 15 -44 25 -10 9 -18 15 -18 13 -2 -8 -86 23 -86 32 0 6 -3 7 -7
4 -3 -4 -12 -2 -20 4 -7 6 -13 8 -13 4 0 -4 -6 -2 -14 4 -8 7 -22 14 -32 16
-11 2 -42 13 -70 24 -29 11 -54 17 -58 14 -3 -4 -6 -1 -6 5 0 7 -11 12 -24 12
-14 0 -28 5 -31 10 -4 6 -11 8 -16 5 -5 -4 -9 -2 -9 4 0 5 -9 8 -20 6 -11 -2
-20 0 -20 6 0 5 -11 9 -24 9 -35 0 -39 12 -12 41 12 13 25 32 29 42 3 9 11 17
17 17 5 0 10 5 10 10 0 6 12 23 26 39 14 16 25 32 25 35 -1 4 14 22 34 42 19
19 35 37 35 40 0 3 12 16 26 29 15 14 23 25 19 25 -4 0 9 14 30 30 21 17 35
30 31 30 -3 0 2 9 11 19 9 11 20 18 25 15 4 -3 8 0 8 7 0 9 125 139 135 139 1
0 20 17 42 38 46 43 106 94 113 96 2 0 15 11 29 24 13 12 28 22 32 22 5 0 9 7
9 16 0 8 4 13 8 10 5 -3 18 4 30 14 12 11 26 20 32 20 5 0 10 5 10 10 0 6 6
10 14 10 8 0 16 7 20 15 3 8 12 15 20 15 7 0 16 7 20 15 3 9 12 12 23 8 10 -3
15 -2 11 2 -8 9 31 42 45 37 4 -1 7 3 7 9 0 5 4 8 9 4 6 -3 13 1 18 8 10 16
85 63 96 59 4 -1 7 3 7 9 0 5 5 7 10 4 6 -3 10 -1 10 6 0 7 3 10 6 6 4 -3 12
-1 19 6 26 25 50 42 60 43 22 3 55 17 55 24 0 8 49 25 63 21 5 -1 6 3 3 7 -5
9 84 49 93 43 2 -2 7 2 11 8 3 6 17 14 31 16 13 3 25 9 27 15 2 6 7 8 12 5 5
-3 14 0 22 7 12 12 25 17 53 22 6 1 17 6 25 11 8 5 20 10 25 12 6 1 20 4 32 7
11 2 34 11 51 20 16 8 32 12 36 9 3 -4 6 -1 6 6 0 7 4 10 8 7 4 -2 41 6 81 20
39 13 80 25 89 27 9 1 22 5 27 8 6 4 18 5 28 4 9 -2 17 0 17 4 0 4 8 7 18 8
31 2 47 8 54 18 5 6 8 5 8 -4 0 -10 4 -11 13 -3 6 5 28 13 47 16 63 10 95 16
130 23 58 11 63 12 88 18 18 4 22 3 16 -7 -6 -9 -3 -9 9 1 10 8 20 11 23 8 3
-3 17 -2 30 3 17 7 24 6 24 -3 0 -8 3 -8 9 2 5 7 14 10 20 7 6 -4 11 -4 11 1
0 4 21 7 47 6 27 0 55 3 63 8 20 11 22 11 14 -3z m1136 -122 c0 -4 9 -6 20 -3
11 3 18 1 15 -3 -3 -5 11 -12 31 -16 20 -4 60 -15 88 -25 28 -11 59 -19 68
-19 10 0 18 -3 18 -8 0 -4 28 -16 61 -27 34 -10 68 -25 75 -33 8 -7 14 -11 14
-8 0 8 124 -47 132 -59 4 -5 8 -6 8 -1 0 4 11 1 25 -8 13 -9 31 -16 40 -16 9
0 13 -4 10 -10 -3 -5 1 -10 10 -10 17 0 56 -20 67 -35 5 -7 8 -7 8 0 0 7 3 7
8 0 4 -6 28 -20 55 -33 26 -13 47 -27 47 -32 0 -5 7 -6 17 -3 11 4 14 3 9 -5
-4 -7 -1 -12 9 -12 9 0 23 -7 32 -15 8 -8 19 -12 25 -9 7 4 8 2 4 -4 -4 -7 -1
-12 8 -12 9 0 16 -5 16 -11 0 -5 5 -7 10 -4 6 3 10 2 10 -3 0 -5 16 -17 35
-28 19 -10 35 -22 35 -26 0 -5 5 -8 10 -8 9 0 71 -44 179 -129 45 -35 59 -47
212 -182 10 -9 15 -20 11 -24 -4 -5 -2 -5 4 -2 11 6 74 -57 74 -74 0 -5 4 -8
8 -7 8 3 112 -98 112 -108 0 -3 10 -15 23 -28 28 -29 75 -84 107 -127 14 -18
33 -41 43 -51 9 -10 14 -18 10 -18 -5 0 -3 -4 2 -8 18 -13 75 -89 75 -101 0
-6 3 -11 8 -11 10 0 58 -79 54 -92 -1 -5 2 -7 7 -4 5 4 12 -3 16 -14 3 -11 18
-35 33 -52 15 -18 20 -28 12 -23 -8 4 -5 -3 8 -17 12 -13 22 -30 22 -36 0 -7
5 -12 10 -12 6 0 10 -9 10 -19 0 -11 3 -21 8 -23 4 -1 23 -34 42 -73 19 -38
37 -72 40 -75 3 -3 11 -16 18 -29 11 -19 11 -22 0 -15 -7 4 -5 -2 5 -13 9 -11
14 -23 10 -26 -3 -4 -1 -7 5 -7 7 0 12 -4 12 -9 0 -5 5 -22 12 -38 6 -15 12
-30 13 -33 0 -3 6 -15 13 -27 7 -13 9 -23 5 -23 -4 0 -3 -4 2 -8 11 -7 36 -66
39 -92 1 -8 8 -26 15 -39 7 -13 15 -38 18 -55 3 -17 10 -34 16 -38 6 -4 8 -10
5 -14 -4 -4 -3 -15 3 -26 6 -11 13 -31 15 -45 3 -14 6 -31 7 -37 1 -6 5 -13 9
-16 3 -3 9 -18 12 -35 11 -57 25 -120 35 -152 5 -17 7 -34 4 -37 -3 -3 -1 -11
4 -18 6 -7 9 -23 8 -35 -1 -13 1 -23 5 -23 4 0 6 -16 5 -35 0 -19 2 -35 6 -35
4 0 7 -12 7 -27 0 -16 3 -44 6 -63 9 -61 19 -164 19 -202 0 -21 5 -38 11 -38
6 0 4 -5 -4 -10 -11 -7 -11 -10 -2 -10 10 0 10 -5 2 -20 -6 -11 -7 -20 -3 -20
11 0 9 -242 -2 -259 -5 -9 -4 -12 3 -7 7 4 9 -3 7 -21 -2 -16 -4 -28 -5 -28 0
0 -3 -35 -5 -77 -3 -42 -8 -96 -11 -120 -3 -24 -6 -62 -7 -85 -1 -24 -5 -43
-8 -43 -4 0 -7 -12 -7 -27 0 -16 -2 -39 -5 -53 -3 -14 -8 -43 -12 -65 -5 -39
-29 -70 -46 -59 -5 3 -9 1 -9 -3 0 -5 -21 -15 -47 -23 -60 -18 -52 -16 -91
-25 -18 -4 -35 -12 -38 -16 -3 -5 -15 -9 -28 -9 -12 0 -26 -3 -30 -7 -3 -4
-16 -8 -28 -10 -12 -2 -25 -7 -28 -11 -3 -4 -14 -8 -25 -8 -11 -1 -33 -5 -50
-9 -16 -3 -37 -8 -45 -9 -9 -1 -22 -6 -30 -11 -8 -5 -26 -10 -40 -11 -14 -1
-25 -2 -25 -4 0 -1 -9 -3 -20 -5 -21 -4 -78 -15 -105 -20 -8 -2 -15 -4 -15 -5
0 -3 -40 -9 -75 -12 -19 -2 -37 -6 -41 -10 -3 -4 -28 -9 -57 -10 -29 -2 -52
-5 -52 -8 0 -3 -12 -7 -27 -8 -16 -1 -44 -4 -63 -7 -75 -12 -97 -15 -145 -20
-27 -4 -59 -7 -70 -9 -11 -1 -26 3 -34 8 -11 8 -13 8 -7 -1 5 -9 -1 -13 -21
-14 -15 0 -55 -1 -88 -2 -33 -1 -63 -6 -67 -12 -5 -7 -8 -6 -8 0 0 6 -9 11
-20 11 -11 0 -20 -4 -20 -8 0 -4 -9 -6 -20 -5 -11 1 -20 5 -20 10 0 5 -6 5
-12 0 -15 -12 -253 -12 -264 0 -4 4 -13 2 -20 -4 -8 -7 -14 -7 -19 1 -5 8 -11
7 -22 -1 -9 -8 -17 -9 -21 -3 -4 6 -23 10 -42 9 -19 0 -45 3 -57 7 -16 5 -23
4 -23 -5 0 -8 -3 -8 -8 -2 -4 6 -14 10 -22 10 -8 -1 -19 1 -25 4 -5 3 -19 6
-30 8 -57 5 -96 12 -160 28 -38 9 -77 18 -85 20 -31 7 -145 48 -156 56 -6 5
-14 6 -17 2 -4 -3 -7 -1 -7 5 0 7 -3 11 -7 10 -11 -2 -62 22 -95 45 -16 10
-28 16 -28 13 0 -3 -8 1 -17 9 -84 74 -109 95 -115 95 -5 0 -8 5 -8 10 0 9 -7
18 -55 71 -8 9 -15 21 -15 27 0 6 -7 18 -16 26 -8 9 -17 24 -19 34 -2 10 -10
34 -18 54 -9 20 -13 39 -9 42 3 3 1 6 -4 6 -5 0 -10 12 -11 28 -4 82 -3 173 2
217 6 42 9 70 14 118 1 5 5 6 10 3 5 -4 7 3 4 14 -3 11 -2 28 3 37 4 10 9 25
10 33 1 8 5 26 9 40 3 14 8 32 10 40 2 8 4 16 5 18 2 1 3 5 5 10 1 4 4 14 7
22 3 8 14 41 23 73 9 31 21 57 27 57 5 0 6 5 3 10 -4 6 -1 17 5 25 7 8 9 15 5
15 -4 0 -1 10 7 23 15 22 33 76 30 90 -1 4 2 7 8 7 5 0 10 4 10 10 0 17 34 90
42 90 4 0 5 7 2 15 -4 8 -1 15 5 15 6 0 11 7 11 15 0 8 8 23 18 33 9 10 18 25
20 33 2 7 7 16 10 19 24 18 92 148 102 195 1 6 6 15 11 21 16 19 22 75 21 199
0 136 -1 145 -15 145 -6 0 -8 3 -4 6 3 4 0 19 -8 34 -8 15 -11 30 -8 34 4 3 1
6 -6 6 -7 0 -10 4 -7 8 3 5 -4 15 -15 22 -10 8 -19 20 -19 27 0 7 -5 13 -11
13 -5 0 -7 5 -4 10 4 6 3 10 -2 8 -4 -1 -24 14 -44 33 -45 44 -137 93 -214
114 -33 8 -69 18 -80 21 -11 3 -31 5 -44 5 -12 -1 -28 2 -34 6 -7 4 -18 8 -27
9 -23 2 -80 14 -125 25 -22 5 -48 11 -57 14 -9 2 -25 8 -36 14 -11 6 -22 7
-26 4 -3 -3 -6 -1 -6 6 0 7 -4 9 -10 6 -5 -3 -10 -1 -10 4 0 6 -3 10 -7 9 -14
-3 -58 20 -80 41 -12 12 -25 21 -28 21 -29 0 -165 197 -148 214 3 3 1 6 -6 6
-7 0 -11 6 -8 13 2 6 -2 24 -10 39 -11 22 -21 147 -14 168 2 5 10 61 13 88 1
6 5 12 9 12 5 0 6 7 3 15 -4 8 -2 15 4 15 5 0 13 16 16 35 4 19 11 35 17 35 6
0 7 5 4 10 -3 6 -3 10 2 10 4 0 14 14 21 30 8 17 19 36 25 43 7 6 26 32 42 56
17 25 45 60 63 78 18 18 30 33 27 33 -3 0 3 8 13 18 9 11 20 17 25 15 4 -2 7
1 7 7 0 6 7 18 15 26 8 9 15 13 15 10 0 -3 27 21 60 54 33 33 60 56 60 53 0
-3 9 4 20 17 11 13 20 20 20 17 0 -4 8 1 18 11 37 35 93 81 98 81 6 -1 50 30
70 49 8 7 14 10 14 6 0 -4 10 2 23 13 43 39 119 83 130 77 7 -4 9 -3 4 1 -8 9
89 74 111 75 6 0 12 4 12 9 0 5 20 17 44 27 24 10 42 22 40 26 -3 5 2 8 10 8
9 0 28 8 44 18 30 18 82 23 82 8z m-3818 -1570 c9 -4 25 -9 35 -11 10 -2 19
-4 21 -5 2 -3 2 -3 47 -15 17 -4 35 -12 42 -17 7 -5 16 -7 22 -4 5 4 16 -1 24
-9 9 -8 24 -15 34 -15 11 0 25 -6 32 -12 11 -11 13 -10 7 2 -5 9 -2 9 7 -2 8
-10 16 -15 20 -12 3 3 13 1 24 -4 44 -24 88 -40 95 -36 4 3 8 0 8 -5 0 -6 8
-11 19 -11 10 0 24 -7 31 -15 7 -8 16 -12 21 -9 5 3 9 0 9 -7 0 -7 3 -9 6 -6
4 4 19 0 33 -7 14 -8 47 -24 74 -37 26 -13 47 -28 47 -32 0 -5 4 -6 9 -2 5 3
12 1 16 -5 4 -6 11 -8 16 -4 5 3 8 0 7 -8 -2 -7 3 -12 10 -10 7 1 18 -2 25 -8
46 -39 61 -50 69 -50 5 0 15 -6 23 -12 26 -25 55 -48 62 -48 7 0 123 -118 123
-125 0 -3 9 -15 20 -27 11 -12 20 -28 20 -35 0 -7 4 -13 9 -13 7 0 15 -22 27
-75 1 -5 3 -14 4 -20 7 -29 0 -140 -9 -143 -5 -2 -7 -10 -5 -17 3 -8 -1 -28
-9 -45 -10 -19 -11 -28 -4 -23 7 3 3 -3 -7 -15 -11 -12 -16 -22 -12 -22 3 0
-10 -25 -30 -55 -20 -30 -41 -55 -45 -55 -5 0 -8 -3 -6 -8 3 -11 -105 -112
-120 -112 -7 0 -13 -5 -13 -11 0 -5 -4 -7 -10 -4 -5 3 -10 2 -10 -2 0 -10 -62
-49 -72 -45 -5 1 -8 -3 -8 -9 0 -5 -4 -7 -10 -4 -5 3 -10 1 -10 -4 0 -6 -7
-11 -15 -11 -8 0 -15 -4 -15 -10 0 -5 -3 -9 -7 -8 -10 2 -57 -17 -135 -52 -13
-6 -34 -13 -48 -15 -14 -3 -26 -9 -28 -15 -2 -6 -7 -8 -12 -5 -5 3 -20 1 -34
-5 -44 -16 -220 -62 -243 -63 -13 -1 -23 -4 -23 -8 0 -3 -12 -6 -27 -7 -16 0
-31 -1 -35 -2 -5 -1 -12 -4 -18 -5 -5 -1 -11 -4 -12 -5 -2 -1 -14 -4 -28 -6
-14 -2 -43 -6 -65 -10 -22 -4 -50 -7 -62 -8 -13 -1 -23 -3 -23 -6 0 -5 -36
-10 -97 -14 -13 0 -23 -5 -23 -11 0 -5 -5 -3 -10 5 -5 8 -10 10 -10 4 0 -6
-15 -10 -35 -9 -19 1 -35 -1 -35 -5 0 -5 -25 -8 -117 -13 -24 -1 -43 -5 -43
-8 0 -3 -10 -5 -22 -4 -22 2 -40 32 -30 50 3 5 7 27 8 50 3 52 12 150 19 195
3 19 5 42 6 50 0 8 3 22 6 30 3 8 7 33 9 55 4 46 7 66 15 80 3 6 4 20 3 33 0
12 2 22 5 22 4 0 7 10 8 23 2 38 12 70 25 79 11 6 11 8 0 8 -10 0 -10 5 -2 20
6 11 8 25 5 30 -3 6 -1 10 5 10 6 0 8 5 5 10 -3 6 -3 16 2 23 4 6 9 18 10 25
3 14 11 46 12 50 1 1 1 4 1 7 1 2 7 20 16 40 8 19 12 35 9 35 -3 0 0 10 7 23
6 12 13 27 14 32 3 13 52 145 64 170 40 86 67 154 62 159 -3 3 0 6 7 6 7 0 9
5 6 10 -3 6 -1 10 4 10 6 0 11 7 11 15 0 8 5 15 10 15 5 0 10 3 9 8 -2 15 14
52 22 52 5 0 8 3 7 8 -4 11 26 72 34 72 5 0 8 7 8 15 0 8 5 15 11 15 6 0 9 7
5 15 -3 8 -1 15 4 15 6 0 10 6 10 14 0 15 39 16 72 2z m863 -2876 c-4 -6 5 -9
19 -8 15 1 26 5 26 9 0 3 18 3 40 -1 26 -5 40 -4 40 3 0 6 7 2 16 -9 8 -10 13
-13 9 -6 -6 13 23 12 100 -4 17 -3 39 -7 50 -8 43 -7 185 -73 185 -86 0 -5 9
-12 20 -15 11 -3 20 -13 20 -21 0 -8 4 -14 10 -14 22 0 37 -65 34 -145 -6
-116 -7 -125 -17 -125 -4 0 -5 -4 -2 -10 3 -5 0 -10 -7 -11 -9 0 -10 -2 -1 -5
8 -4 9 -12 3 -27 -11 -27 -23 -82 -18 -83 2 0 -2 -7 -8 -15 -6 -8 -10 -24 -9
-36 1 -13 -2 -23 -7 -23 -5 0 -6 -4 -3 -10 3 -5 2 -10 -2 -10 -5 0 -9 -8 -9
-17 -1 -10 -4 -43 -9 -73 -4 -30 -8 -63 -7 -73 0 -9 -3 -15 -8 -12 -5 3 -6 -7
-2 -22 4 -16 7 -49 7 -75 0 -27 4 -48 9 -48 4 0 6 -7 2 -15 -3 -8 -1 -15 5
-15 6 0 7 -4 4 -10 -3 -5 0 -20 7 -32 6 -13 13 -28 14 -34 2 -15 71 -104 98
-128 49 -43 154 -95 179 -88 4 1 7 -3 7 -8 0 -5 3 -9 8 -8 4 1 27 -2 52 -7 25
-5 48 -8 53 -7 4 1 7 -2 7 -6 0 -5 10 -8 23 -7 12 1 27 0 32 -4 6 -3 17 -6 25
-8 8 -1 42 -7 75 -13 33 -6 70 -12 83 -13 12 -1 22 -5 22 -10 0 -5 6 -7 14 -4
8 3 30 1 48 -4 18 -6 49 -13 68 -15 19 -3 42 -8 50 -11 8 -3 24 -7 35 -9 24
-3 60 -12 60 -14 0 -2 30 -9 55 -14 17 -4 31 -8 80 -25 19 -7 44 -14 55 -16
11 -2 48 -15 82 -28 34 -14 64 -22 67 -19 3 3 6 0 6 -7 0 -7 5 -9 10 -6 6 3
10 1 10 -4 0 -6 3 -10 8 -9 15 4 82 -24 82 -34 0 -6 3 -8 7 -5 3 4 12 2 20 -4
7 -6 13 -8 13 -5 0 4 14 -2 30 -14 17 -12 30 -18 30 -13 0 4 5 0 11 -9 5 -9
16 -15 23 -12 7 3 16 -2 20 -11 3 -9 10 -13 16 -10 6 3 13 -1 16 -9 3 -9 10
-13 15 -10 5 3 9 0 9 -6 0 -6 4 -9 8 -6 5 3 19 -4 30 -15 12 -11 22 -17 22
-14 0 6 22 -10 78 -56 6 -5 12 -7 12 -4 0 4 6 0 14 -7 42 -41 86 -78 86 -72 0
4 10 -5 23 -19 12 -15 25 -27 29 -27 3 0 40 -34 81 -75 41 -41 73 -75 71 -75
-1 0 15 -18 37 -40 22 -22 37 -40 34 -40 -4 0 1 -7 9 -16 24 -24 19 -34 -16
-36 -32 -1 -47 -3 -58 -8 -3 -1 -16 -3 -30 -5 -14 -2 -45 -6 -70 -10 -55 -8
-110 -13 -170 -16 -25 -1 -53 -6 -64 -12 -14 -7 -17 -6 -11 4 6 9 3 10 -11 5
-26 -11 -245 -13 -251 -3 -3 4 -10 4 -16 -1 -10 -6 -112 -9 -112 -2 0 1 -29 3
-65 5 -76 5 -125 10 -195 21 -27 4 -62 7 -77 7 -16 0 -28 3 -28 7 0 4 -13 6
-30 5 -16 -1 -30 2 -30 7 0 5 -4 6 -10 3 -5 -3 -19 -1 -31 6 -17 9 -20 8 -13
-3 6 -11 5 -11 -9 1 -9 7 -17 10 -17 6 0 -4 -6 -3 -12 2 -7 5 -25 9 -40 8 -16
0 -28 3 -28 8 0 5 -9 7 -20 4 -11 -3 -20 -1 -20 5 0 5 -4 6 -10 3 -5 -3 -10
-2 -10 3 0 6 -10 8 -22 4 -13 -3 -19 -1 -15 5 4 6 -3 8 -18 5 -14 -2 -25 0
-25 5 0 5 -14 10 -32 11 -18 2 -35 6 -38 10 -3 4 -14 8 -25 10 -11 2 -37 9
-57 17 -21 8 -38 12 -38 9 0 -4 -6 -2 -12 3 -7 6 -44 21 -83 34 -38 13 -72 27
-73 32 -2 4 -8 5 -13 1 -5 -3 -9 0 -9 5 0 6 -3 10 -7 9 -5 -1 -24 4 -43 11
-19 8 -38 13 -42 12 -5 0 -8 3 -8 9 0 6 -3 10 -7 9 -16 -2 -53 14 -53 23 0 5
-4 7 -9 3 -5 -3 -17 2 -25 11 -9 8 -16 13 -16 9 0 -8 -63 27 -72 40 -4 6 -8 6
-8 2 0 -8 -59 21 -70 34 -4 5 -33 17 -50 22 -3 0 -9 5 -15 9 -25 20 -87 58
-95 58 -6 0 -10 5 -10 10 0 6 -4 10 -9 10 -15 0 -161 101 -161 111 0 5 -3 8
-7 8 -21 -3 -33 3 -33 17 0 9 -5 14 -12 12 -7 -3 -23 7 -35 20 -13 14 -23 22
-23 19 0 -6 -29 17 -81 66 -10 9 -21 17 -24 17 -2 0 -18 13 -35 30 -17 17 -35
30 -40 30 -6 0 -10 7 -10 15 0 8 -4 15 -8 15 -13 0 -97 81 -95 91 2 5 -2 9 -7
9 -18 0 -190 181 -190 200 0 6 -4 8 -10 5 -5 -3 -10 -2 -10 3 0 6 -12 23 -27
40 -16 16 -37 42 -48 58 -11 15 -26 33 -32 40 -7 7 -13 16 -13 20 0 3 -10 15
-22 25 -11 11 -18 19 -14 19 4 0 2 6 -4 13 -44 51 -60 73 -60 80 0 7 -9 20
-38 52 -7 8 -13 18 -12 22 0 4 -7 16 -15 26 -8 9 -15 21 -15 26 0 5 -3 11 -7
13 -5 2 -19 24 -32 51 -13 26 -28 47 -32 47 -4 0 -10 14 -14 30 -4 17 -11 30
-16 30 -6 0 -7 5 -4 10 3 6 3 10 -2 10 -9 0 -39 61 -35 73 1 4 -2 7 -7 7 -5 0
-11 11 -13 24 -4 19 2 26 31 39 20 9 39 15 42 14 4 -1 17 7 29 18 12 11 24 19
26 18 4 -2 46 14 119 47 67 29 209 83 225 85 8 1 25 7 38 13 12 7 22 10 22 6
0 -3 6 -1 14 5 7 6 25 12 40 13 14 1 26 6 26 10 0 4 3 7 8 6 4 -1 19 2 33 6
14 4 34 9 45 11 10 2 20 4 22 5 1 2 6 3 11 4 5 0 13 4 16 8 4 4 17 3 28 -3 14
-8 18 -8 13 0 -5 7 2 11 17 11 13 0 27 3 30 7 4 3 22 8 39 9 45 4 98 12 126
18 13 3 22 0 22 -7 0 -7 5 -4 11 6 5 9 12 17 15 17 3 0 2 -4 -1 -10z"/>
</g>
</svg>
